<svg width="27" height="20" viewBox="0 0 27 20" fill="none" xmlns="http://www.w3.org/2000/svg">
<path d="M13.3625 19.3913C10.8153 19.3913 8.62293 18.4725 6.78543 16.635C4.94793 14.7975 4.02918 12.6052 4.02918 10.0579V8.74544L1.69585 11.0788L0.55835 9.94128L4.90418 5.59544L9.25002 9.94128L8.11252 11.0788L5.77918 8.74544V10.0579C5.77918 12.1385 6.52293 13.9225 8.01043 15.41C9.49793 16.8975 11.282 17.6413 13.3625 17.6413C13.9264 17.6413 14.4611 17.5927 14.9667 17.4954C15.4722 17.3982 15.9486 17.2524 16.3958 17.0579L17.65 18.3121C16.95 18.701 16.2452 18.9781 15.5354 19.1434C14.8257 19.3086 14.1014 19.3913 13.3625 19.3913ZM21.7917 14.4621L17.4458 10.1163L18.6125 8.94961L20.9167 11.2538V10.0579C20.9167 7.97739 20.1729 6.19336 18.6854 4.70586C17.1979 3.21836 15.4139 2.47461 13.3333 2.47461C12.7695 2.47461 12.2347 2.52808 11.7292 2.63503C11.2236 2.74197 10.7472 2.87322 10.3 3.02878L9.04585 1.77461C9.74585 1.38572 10.4507 1.1135 11.1604 0.957943C11.8702 0.802387 12.5945 0.724609 13.3333 0.724609C15.8806 0.724609 18.0729 1.64336 19.9104 3.48086C21.7479 5.31836 22.6667 7.51072 22.6667 10.0579V11.3121L25 8.97878L26.1375 10.1163L21.7917 14.4621Z" fill="#2953A6"/>
</svg>
