<svg width="19" height="22" viewBox="0 0 19 22" fill="none" xmlns="http://www.w3.org/2000/svg">
<path d="M6.42925 21.5V17.7958H4.35841C3.89175 17.7958 3.48341 17.6208 3.13341 17.2708C2.78341 16.9208 2.60841 16.5125 2.60841 16.0458V12.8083H1.44175C1.05286 12.8083 0.76119 12.6285 0.566745 12.2687C0.372301 11.909 0.382023 11.525 0.595912 11.1167L2.60841 7.5C3.11397 5.38056 4.1105 3.68403 5.598 2.41042C7.0855 1.13681 8.83063 0.5 10.8334 0.5C13.0695 0.5 14.9897 1.30208 16.5938 2.90625C18.198 4.51042 19.0001 6.43056 19.0001 8.66667C19.0001 10.3194 18.5431 11.7778 17.6292 13.0417C16.7154 14.3056 15.4709 15.3167 13.8959 16.075V21.5H6.42925ZM9.92925 12.925H11.6792L11.7667 11.6417C12.039 11.5833 12.2723 11.491 12.4667 11.3646C12.6612 11.2382 12.8265 11.1069 12.9626 10.9708L14.1876 11.3792L15.0042 9.97917L14.1292 9.27917C14.2265 9.00694 14.2751 8.725 14.2751 8.43333C14.2751 8.14167 14.2265 7.85972 14.1292 7.5875L15.0042 6.8875L14.1876 5.4875L12.9626 5.89583C12.8265 5.75972 12.6563 5.63333 12.4522 5.51667C12.248 5.4 12.0195 5.30278 11.7667 5.225L11.6792 3.94167H9.92925L9.84174 5.225C9.58897 5.30278 9.3605 5.4 9.15633 5.51667C8.95216 5.63333 8.78202 5.75972 8.64591 5.89583L7.42091 5.4875L6.60425 6.8875L7.47925 7.5875C7.38202 7.85972 7.33341 8.14167 7.33341 8.43333C7.33341 8.725 7.38202 9.00694 7.47925 9.27917L6.60425 9.97917L7.42091 11.3792L8.64591 10.9708C8.78202 11.1069 8.9473 11.2382 9.14175 11.3646C9.33619 11.491 9.56952 11.5833 9.84174 11.6417L9.92925 12.925ZM10.8042 10.475C10.2404 10.475 9.75911 10.2757 9.3605 9.87708C8.96188 9.47847 8.76258 8.99722 8.76258 8.43333C8.76258 7.86944 8.96188 7.38819 9.3605 6.98958C9.75911 6.59097 10.2404 6.39167 10.8042 6.39167C11.3681 6.39167 11.8494 6.59097 12.248 6.98958C12.6466 7.38819 12.8459 7.86944 12.8459 8.43333C12.8459 8.99722 12.6466 9.47847 12.248 9.87708C11.8494 10.2757 11.3681 10.475 10.8042 10.475Z" fill="#2953A6"/>
</svg>
