<svg width="26" height="17" viewBox="0 0 26 17" fill="none" xmlns="http://www.w3.org/2000/svg">
<path d="M17.833 16.3333C20.108 16.3333 22.0379 15.541 23.6226 13.9563C25.2073 12.3715 25.9997 10.4417 25.9997 8.16667C25.9997 5.89167 25.2073 3.96181 23.6226 2.37708C22.0379 0.792361 20.108 0 17.833 0C17.1719 0 16.5448 0.0729167 15.9518 0.21875C15.3587 0.364583 14.7802 0.573611 14.2163 0.845833C15.3247 1.81806 16.2045 2.93125 16.8559 4.18542C17.5073 5.43958 17.833 6.76667 17.833 8.16667C17.833 9.56667 17.5073 10.8938 16.8559 12.1479C16.2045 13.4021 15.3247 14.5153 14.2163 15.4875C14.7802 15.7597 15.3587 15.9688 15.9518 16.1146C16.5448 16.2604 17.1719 16.3333 17.833 16.3333ZM13.1663 14.875C14.2358 14.1361 15.0865 13.1833 15.7184 12.0167C16.3504 10.85 16.6663 9.56667 16.6663 8.16667C16.6663 6.76667 16.3504 5.48333 15.7184 4.31667C15.0865 3.15 14.2358 2.19722 13.1663 1.45833C12.1163 2.19722 11.2705 3.15 10.6288 4.31667C9.98717 5.48333 9.66634 6.76667 9.66634 8.16667C9.66634 9.56667 9.98717 10.85 10.6288 12.0167C11.2705 13.1833 12.1163 14.1361 13.1663 14.875ZM8.49967 16.3333C9.14134 16.3333 9.76356 16.2653 10.3663 16.1292C10.9691 15.9931 11.5427 15.7889 12.0872 15.5167C10.9788 14.6417 10.1038 13.5722 9.46217 12.3083C8.82051 11.0444 8.49967 9.66389 8.49967 8.16667C8.49967 6.76667 8.82537 5.43958 9.47676 4.18542C10.1281 2.93125 11.008 1.81806 12.1163 0.845833C11.5719 0.573611 10.9983 0.364583 10.3955 0.21875C9.79273 0.0729167 9.16079 0 8.49967 0C6.22467 0 4.29481 0.792361 2.71009 2.37708C1.12537 3.96181 0.333008 5.89167 0.333008 8.16667C0.333008 10.4417 1.12537 12.3715 2.71009 13.9563C4.29481 15.541 6.22467 16.3333 8.49967 16.3333Z" fill="#2953A6"/>
</svg>
